<?xml version="1.0" encoding="utf-8"?>
<svg xmlns="http://www.w3.org/2000/svg" viewBox="0 0 24 24" role="img" aria-hidden="true">
  <path d="M12 2C6.48 2 2 6.48 2 12c0 4.42 2.87 8.17 6.84 9.5.5.09.66-.22.66-.48 0-.24-.01-.87-.01-1.71-2.78.6-3.37-1.17-3.37-1.17-.45-1.15-1.11-1.46-1.11-1.46-.91-.62.07-.61.07-.61 1 .07 1.53 1.03 1.53 1.03.9 1.53 2.36 1.09 2.94.83.09-.65.35-1.09.63-1.34-2.22-.25-4.56-1.11-4.56-4.93 0-1.09.39-1.98 1.03-2.68-.1-.25-.45-1.27.1-2.65 0 0 .84-.27 2.75 1.02A9.6 9.6 0 0112 6.8c.85.004 1.71.115 2.5.34 1.9-1.29 2.73-1.02 2.73-1.02.55 1.38.2 2.4.1 2.65.64.7 1.03 1.59 1.03 2.68 0 3.83-2.34 4.68-4.57 4.93.36.31.68.92.68 1.86 0 1.34-.012 2.42-.012 2.75 0 .27.16.59.67.49C19.14 20.17 22 16.42 22 12c0-5.52-4.48-10-10-10z" fill="currentColor"/>
</svg>