<?xml version="1.0" encoding="UTF-8"?>
<!-- Original, non-copyrighted logo for NoctisGuard: modern flat shield with stylized 'N' -->
<svg xmlns="http://www.w3.org/2000/svg" width="512" height="512" viewBox="0 0 512 512" role="img" aria-label="NoctisGuard logo">
  <defs>
    <linearGradient id="glow" x1="0" x2="1" y1="0" y2="1">
      <stop offset="0" stop-color="#7c5cff"/>
      <stop offset="1" stop-color="#6a3bff"/>
    </linearGradient>
  </defs>
  <rect width="512" height="512" rx="64" fill="#0b0f12"/>
  <!-- shield shape -->
  <path d="M256 88c-30 0-98 24-130 56-16 16-24 36-24 66 0 76 76 178 154 226 78-48 154-150 154-226 0-30-8-50-24-66-32-32-100-56-130-56z" fill="url(#glow)" opacity="0.96" />
  <!-- inner cut -->
  <path d="M256 124c-18 0-58 16-80 36-10 10-16 22-16 38 0 44 44 102 96 132 52-30 96-88 96-132 0-16-6-28-16-38-22-20-62-36-80-36z" fill="#0b1330" opacity="0.95" />
  <!-- stylized T -->
  <g transform="translate(210,180) scale(0.8)" fill="#fff">
    <rect x="0" y="-20" width="92" height="20" rx="6" fill="#ffffff" opacity="0.98" />
    <rect x="36" y="-20" width="20" height="120" rx="8" fill="#ffffff" opacity="0.98" />
  </g>
  <!-- small accent circle -->
  <circle cx="380" cy="120" r="14" fill="#00d1b2" opacity="0.96" />
</svg>