<?xml version="1.0" encoding="UTF-8"?>
<svg version="1.1" xmlns="http://www.w3.org/2000/svg" width="512" height="512">
<path d="M0 0 C0.85859619 0.15686279 1.71719238 0.31372559 2.60180664 0.4753418 C9.3717801 1.8348135 15.80812087 3.95475386 22.3125 6.25 C23.90807739 6.80929199 23.90807739 6.80929199 25.53588867 7.37988281 C39.22537335 12.23236607 52.57717293 17.24289924 65.3125 24.25 C66.0957666 24.6737793 66.8790332 25.09755859 67.68603516 25.53417969 C71.71744226 27.71580887 75.74015454 29.91333311 79.7421875 32.1484375 C80.70487549 32.68476807 80.70487549 32.68476807 81.68701172 33.23193359 C83.3125 34.25 83.3125 34.25 85.3125 36.25 C85.2196875 34.4865625 85.2196875 34.4865625 85.125 32.6875 C85.13454857 27.29255971 86.78837729 23.19457036 90.125 18.9375 C94.77346168 15.35154385 99.56091303 14.73646545 105.3125 15.25 C109.85279866 16.79370155 112.78831529 19.05929025 115.39453125 23.0234375 C117.7615884 28.76481016 117.19959004 35.03227489 114.9375 40.6875 C111.23792692 44.298988 107.025687 46.21721324 102.3125 48.25 C103.158125 48.91 104.00375 49.57 104.875 50.25 C111.8351546 56.09652986 117.20001891 63.14555009 121.3125 71.25 C121.3125 71.91 121.3125 72.57 121.3125 73.25 C121.9725 73.25 122.6325 73.25 123.3125 73.25 C130.31489254 88.86007665 132.54530762 103.13715885 132.5625 120.125 C132.56350708 120.81463837 132.56451416 121.50427673 132.56555176 122.21481323 C132.54464766 143.40203923 127.98527053 162.21944684 120.1875 181.9375 C119.70812988 183.15211914 119.22875977 184.36673828 118.73486328 185.61816406 C114.90273923 195.1423974 110.54798143 204.20783433 105.49902344 213.14013672 C104.31941048 215.23771186 103.1757637 217.35156984 102.0390625 219.47265625 C97.44538799 227.96402441 92.28103629 235.78926622 86.54882812 243.54882812 C84.48847408 246.38384925 82.53353781 249.29007024 80.5625 252.1875 C77.79358355 256.20705183 74.97083038 260.00761148 71.7109375 263.63671875 C69.61236717 266.05769514 67.76614181 268.65389753 65.90234375 271.2578125 C64.3125 273.25 64.3125 273.25 61.8984375 275.65625 C59.37417581 278.18813786 57.20362627 280.81306008 55 283.625 C51.71022769 287.70038958 48.36226452 291.14920183 44.32592773 294.46826172 C42.37866553 296.19144828 40.7555832 297.96750965 39.0859375 299.95703125 C35.31622856 304.32330189 31.26904047 308.30735433 27.0625 312.25 C25.94597046 313.29982056 25.94597046 313.29982056 24.80688477 314.37084961 C19.97073835 318.85950104 15.0794978 322.87118536 9.63671875 326.60546875 C7.44441067 328.15666489 5.52909587 329.80097185 3.5625 331.625 C-1.81506744 336.48721722 -8.02197299 340.26582316 -14.10351562 344.17773438 C-15.82551542 345.2981596 -15.82551542 345.2981596 -17.765625 347.046875 C-20.63037186 348.84025311 -22.36017447 348.74930346 -25.6875 348.25 C-28.15169404 346.78823894 -30.26066377 345.36942619 -32.5 343.625 C-33.73738355 342.69801924 -34.97566419 341.77223474 -36.21484375 340.84765625 C-36.81022949 340.39793457 -37.40561523 339.94821289 -38.01904297 339.48486328 C-40.1409476 337.91439304 -42.33773891 336.48247795 -44.5625 335.0625 C-48.20036616 332.67075374 -51.39892093 329.98373947 -54.625 327.06640625 C-56.72713895 325.2150907 -58.90433858 323.51925835 -61.125 321.8125 C-69.10177766 315.48016574 -76.36272343 308.31323846 -83.6875 301.25 C-84.32252441 300.63833984 -84.95754883 300.02667969 -85.61181641 299.39648438 C-91.59295682 293.60693365 -97.31192456 287.81158844 -102.27734375 281.1015625 C-104.19431594 278.58454085 -106.42407465 276.45538881 -108.6875 274.25 C-112.42536565 270.13426269 -115.83045981 265.80811683 -119.12890625 261.3359375 C-120.73284579 259.18931165 -122.39366393 257.09645166 -124.0625 255 C-127.53284217 250.5588793 -130.63713361 245.91728243 -133.72265625 241.203125 C-135.45686475 238.59664065 -137.26923272 236.08257197 -139.125 233.5625 C-142.7705832 228.42022094 -145.62958426 222.91643672 -148.49194336 217.3137207 C-150.11159014 214.155172 -151.73103929 211.18556853 -153.72265625 208.23828125 C-156.05332429 204.69362707 -157.74667127 201.06828081 -159.4375 197.1875 C-159.77821533 196.40802002 -160.11893066 195.62854004 -160.4699707 194.82543945 C-170.63059034 171.30207963 -177.86047951 148.76155268 -177.92773438 122.9440918 C-177.93737279 120.71689517 -177.96843614 118.49065033 -178 116.26367188 C-178.16829563 93.29537807 -171.3666119 71.88977707 -155.3828125 54.90234375 C-133.33366498 33.41204559 -104.28973745 18.65623456 -75.31054688 9.12695312 C-73.05630864 8.37330237 -70.83107391 7.57802935 -68.609375 6.734375 C-46.47549495 -1.65426447 -23.35986037 -4.27073834 0 0 Z " fill="#6D49F3" transform="translate(278.6875,88.75)"/>
<path d="M0 0 C11.95133934 9.65184114 21.04813064 20.85064295 23.0859375 36.4921875 C23.92606122 46.88197438 23.07242104 56.47223049 20.0859375 66.4921875 C19.62767578 68.17441406 19.62767578 68.17441406 19.16015625 69.890625 C12.23759274 93.10009247 -1.91159511 113.60546116 -17.9140625 131.4921875 C-18.4002002 132.04003906 -18.88633789 132.58789062 -19.38720703 133.15234375 C-33.09809733 148.54640098 -48.60373698 161.38408869 -65.6640625 172.9296875 C-67.29601562 174.04150391 -67.29601562 174.04150391 -68.9609375 175.17578125 C-71.9140625 176.4921875 -71.9140625 176.4921875 -74.37890625 175.984375 C-94.83409892 163.94449272 -114.9840218 148.04856194 -129.9140625 129.4921875 C-130.81069795 128.41885297 -131.7078889 127.34598239 -132.60546875 126.2734375 C-153.77748403 100.70937352 -171.58883601 69.7262998 -168.9140625 35.4921875 C-166.08553972 19.44117269 -155.9861377 7.03827428 -142.92871094 -2.20556641 C-94.78167884 -34.87400962 -47.14921893 -35.99262611 0 0 Z " fill="#0F153A" transform="translate(328.9140625,153.5078125)"/>
<path d="M0 0 C0.658862 -0.00525696 1.317724 -0.01051392 1.99655151 -0.01593018 C4.17372365 -0.02913053 6.35016422 -0.02039267 8.52734375 -0.01025391 C10.04044739 -0.01227465 11.55355008 -0.01518609 13.06665039 -0.01895142 C16.23756179 -0.02337479 19.40821964 -0.01694352 22.57910156 -0.00292969 C26.64480267 0.01416249 30.70990968 0.00432134 34.77558899 -0.01364708 C37.89998862 -0.02448472 41.02424726 -0.02103873 44.14865112 -0.0132637 C45.647777 -0.01126163 47.14691565 -0.01372125 48.64602661 -0.02070236 C50.74092541 -0.02831687 52.83486053 -0.0167143 54.9296875 0 C56.12198975 0.00238678 57.31429199 0.00477356 58.54272461 0.00723267 C61.46484375 0.38818359 61.46484375 0.38818359 63.34838867 1.76400757 C64.900776 4.02236111 64.86411996 5.66924825 64.83984375 8.38818359 C64.85144531 9.68755859 64.85144531 9.68755859 64.86328125 11.01318359 C64.37385636 13.9305398 63.82587768 14.63884233 61.46484375 16.38818359 C58.73754883 16.72875977 58.73754883 16.72875977 55.484375 16.68115234 C54.32099609 16.67148438 53.15761719 16.66181641 51.95898438 16.65185547 C50.13657227 16.61415039 50.13657227 16.61415039 48.27734375 16.57568359 C47.05080078 16.56214844 45.82425781 16.54861328 44.56054688 16.53466797 C41.52820711 16.49927101 38.49674379 16.44989119 35.46484375 16.38818359 C35.4737262 17.33143494 35.48260864 18.27468628 35.49176025 19.246521 C35.57283066 28.1337582 35.63280162 37.02092044 35.67209244 45.90844345 C35.6929714 50.47769323 35.72129446 55.04664462 35.76660156 59.61572266 C35.81004863 64.02479232 35.83397853 68.4335749 35.84435272 72.8428421 C35.85174618 74.52539846 35.86618392 76.20793902 35.88776398 77.89037323 C35.91678378 80.2464346 35.9208005 82.60130832 35.91894531 84.95751953 C35.94051697 86.00193207 35.94051697 86.00193207 35.96252441 87.06744385 C35.9337654 90.44078092 35.6727397 92.12040285 33.57733154 94.81939697 C31.13800513 96.63090218 29.91228315 96.92892727 26.90234375 96.88818359 C26.13792969 96.89849609 25.37351563 96.90880859 24.5859375 96.91943359 C22.46484375 96.38818359 22.46484375 96.38818359 20.8535614 94.81939697 C18.98354276 91.54557502 19.06748812 88.62289607 19.12426758 84.95751953 C19.12361046 83.84473633 19.12361046 83.84473633 19.12294006 82.70947266 C19.12502588 80.26356456 19.14834648 77.81834657 19.171875 75.37255859 C19.17747171 73.67434056 19.18174145 71.97611768 19.18473816 70.27789307 C19.19618109 65.81272968 19.22564345 61.34786001 19.2588501 56.8828125 C19.28956291 52.32474745 19.30324608 47.76663484 19.31835938 43.20849609 C19.35051374 34.26826303 19.40170339 25.32824776 19.46484375 16.38818359 C18.69293701 16.40389404 17.92103027 16.41960449 17.12573242 16.43579102 C13.63467713 16.49807966 10.14373866 16.53715533 6.65234375 16.57568359 C4.82993164 16.61338867 4.82993164 16.61338867 2.97070312 16.65185547 C1.22563477 16.66635742 1.22563477 16.66635742 -0.5546875 16.68115234 C-1.62823486 16.69686279 -2.70178223 16.71257324 -3.80786133 16.72875977 C-6.53515625 16.38818359 -6.53515625 16.38818359 -8.3840332 15.01831055 C-9.97949742 12.75894372 -9.93464754 11.13120783 -9.91015625 8.38818359 C-9.91789063 7.52193359 -9.925625 6.65568359 -9.93359375 5.76318359 C-8.96828091 0.00916196 -5.1720547 0.01035355 0 0 Z " fill="#F8F8F9" transform="translate(219.53515625,163.61181640625)"/>
<path d="M0 0 C3.72668875 2.51146416 6.1443196 4.73967946 7.875 8.9375 C8.73667678 14.52715982 8.62933915 19.24778031 6.3125 24.4375 C2.02867128 28.83117048 -2.80982494 31.79716278 -9.125 31.9375 C-11.5 30.625 -11.5 30.625 -13.125 28.9375 C-13.125 28.2775 -13.125 27.6175 -13.125 26.9375 C-13.66125 26.855 -14.1975 26.7725 -14.75 26.6875 C-18.28942215 25.56978774 -20.38010589 24.49524224 -23.125 21.9375 C-24.46619013 15.77875494 -23.14324906 10.32723047 -20.125 4.9375 C-15.13146812 -1.43355791 -7.45202657 -2.53368903 0 0 Z " fill="#00C6A9" transform="translate(387.125,105.0625)"/>
<path d="M0 0 C0.66 0 1.32 0 2 0 C9.00239254 15.61007665 11.23280762 29.88715885 11.25 46.875 C11.25100708 47.56463837 11.25201416 48.25427673 11.25305176 48.96481323 C11.23214766 70.15203923 6.67277053 88.96944684 -1.125 108.6875 C-1.60437012 109.90211914 -2.08374023 111.11673828 -2.57763672 112.36816406 C-6.40976077 121.8923974 -10.76451857 130.95783433 -15.81347656 139.89013672 C-16.99308952 141.98771186 -18.1367363 144.10156984 -19.2734375 146.22265625 C-23.86545321 154.71095813 -29.02748215 162.53033495 -34.75927734 170.28564453 C-36.02957841 172.04086966 -37.24908333 173.82246462 -38.45703125 175.62109375 C-38.85341797 176.20930908 -39.24980469 176.79752441 -39.65820312 177.40356445 C-40.74127255 179.01877649 -41.81812411 180.63815297 -42.89453125 182.2578125 C-45.01971427 185.0256761 -47.19046532 186.95046161 -50 189 C-48.69741339 186.24200512 -47.25134975 183.8449569 -45.41796875 181.41015625 C-26.48168106 155.93078188 -10.0658141 128.22703024 0 98 C0.28311035 97.15888672 0.5662207 96.31777344 0.85791016 95.45117188 C8.59605508 72.11659338 12.44564712 47.35320453 7 23 C6.78214844 21.96875 6.56429687 20.9375 6.33984375 19.875 C5.03648719 14.17726641 3.33844875 8.99547946 0.76953125 3.7421875 C0 2 0 2 0 0 Z " fill="#111024" transform="translate(400,162)"/>
<path d="M0 0 C3.56002734 3.51504504 7.00292483 7.11615245 10.375 10.8125 C10.85976807 11.34238525 11.34453613 11.87227051 11.84399414 12.41821289 C14.4090794 15.22958739 16.94604543 18.0603903 19.4375 20.9375 C28.12041575 30.90217951 37.13594512 40.20488934 47 49 C47.78503906 49.73476563 48.57007813 50.46953125 49.37890625 51.2265625 C57.1131885 58.4242871 65.50001765 64.7446394 74 71 C74.83998535 71.62181152 75.6799707 72.24362305 76.54541016 72.88427734 C79.09773273 74.75860178 81.66949292 76.60222879 84.25 78.4375 C85.04784912 79.02370117 85.84569824 79.60990234 86.66772461 80.21386719 C90.74562078 83.26803303 90.74562078 83.26803303 95.56640625 83.66796875 C96.77103516 82.84232422 96.77103516 82.84232422 98 82 C98.5667041 81.64059326 99.1334082 81.28118652 99.71728516 80.91088867 C101.74254493 79.61180637 103.71528293 78.25317297 105.6875 76.875 C106.39068359 76.38797607 107.09386719 75.90095215 107.81835938 75.39916992 C113.40738037 71.49364299 118.7748184 67.38362591 124 63 C124.66 63.33 125.32 63.66 126 64 C119.27495199 70.55098795 112.18328899 75.76191695 104.3203125 80.8359375 C101.11773687 82.81711463 101.11773687 82.81711463 98.9296875 84.7890625 C96.06080445 86.58937373 94.3346849 86.50040782 91 86 C88.53580596 84.53823894 86.42683623 83.11942619 84.1875 81.375 C82.95011645 80.44801924 81.71183581 79.52223474 80.47265625 78.59765625 C79.87727051 78.14793457 79.28188477 77.69821289 78.66845703 77.23486328 C76.5465524 75.66439304 74.34976109 74.23247795 72.125 72.8125 C68.48713384 70.42075374 65.28857907 67.73373947 62.0625 64.81640625 C59.96036105 62.9650907 57.78316142 61.26925835 55.5625 59.5625 C47.58572234 53.23016574 40.32477657 46.06323846 33 39 C32.36497559 38.38833984 31.72995117 37.77667969 31.07568359 37.14648438 C25.09454318 31.35693365 19.37557544 25.56158844 14.41015625 18.8515625 C12.49318406 16.33454085 10.26342535 14.20538881 8 12 C4.50950724 8.26638835 1.51232137 4.99066051 0 0 Z " fill="#0D0E1B" transform="translate(162,351)"/>
<path d="M0 0 C0.33 0.66 0.66 1.32 1 2 C0.14453125 4.07421875 0.14453125 4.07421875 -1.1875 6.6875 C-14.9626291 35.92607485 -10.39384001 72.12252024 0.0625 101.625 C4.15338667 112.69300339 9.22883478 123.27581905 14.49609375 133.82421875 C16.31153191 137.48444998 17.87808134 141.05648951 19 145 C13.42889152 139.74597111 10.19917797 132.74903382 7.1875 125.8125 C6.85129639 125.04204346 6.51509277 124.27158691 6.16870117 123.4777832 C-3.96221647 99.98167541 -11.17307639 77.47436382 -11.24023438 51.6940918 C-11.24987279 49.46689517 -11.28093614 47.24065033 -11.3125 45.01367188 C-11.42611399 29.59669186 -9.57821461 12.65692645 0 0 Z " fill="#121323" transform="translate(112,160)"/>
<path d="M0 0 C3.72668875 2.51146416 6.1443196 4.73967946 7.875 8.9375 C8.73667678 14.52715982 8.62933915 19.24778031 6.3125 24.4375 C2.54687137 28.29968322 -1.11212595 30.3060101 -6.3125 31.9375 C-9.125 31.9375 -9.125 31.9375 -11.5 30 C-12.03625 29.319375 -12.5725 28.63875 -13.125 27.9375 C-12.14660156 28.00710937 -12.14660156 28.00710937 -11.1484375 28.078125 C-6.70387744 28.26167615 -3.7693995 28.24212522 0.3125 26.3125 C4.21653805 22.69412327 5.65358855 19.70879163 6.3125 14.4375 C5.66722346 9.27528768 3.58198109 6.35998424 -0.375 3.0625 C-4.02335958 1.56998926 -7.27752181 1.25853326 -11.125 1.9375 C-15.48850222 4.16041622 -18.22044338 6.38772584 -20.125 10.9375 C-20.74525399 16.51978587 -19.52709043 20.03323204 -17.125 24.9375 C-22 23.1875 -22 23.1875 -23.125 20.9375 C-23.88384252 13.77227547 -22.82436943 8.38152307 -18.3125 2.625 C-12.83088032 -1.60367804 -6.47295044 -2.20080315 0 0 Z " fill="#091418" transform="translate(387.125,105.0625)"/>
<path d="M0 0 C2.17646677 2.04087719 3.74551063 4.02122918 5.2421875 6.59765625 C5.66234131 7.30833252 6.08249512 8.01900879 6.51538086 8.7512207 C6.96405518 9.51394287 7.41272949 10.27666504 7.875 11.0625 C14.7746661 22.58547177 22.51059894 33.58769846 31 44 C30.67 44.66 30.34 45.32 30 46 C23.24289044 39.06717364 18.12703091 31.82806306 13.04785156 23.64697266 C11.5329497 21.26590836 9.8964134 18.97893683 8.25 16.6875 C0 5.03365385 0 5.03365385 0 0 Z " fill="#101020" transform="translate(131,305)"/>
<path d="M0 0 C0.66 0.33 1.32 0.66 2 1 C0.99582031 1.60585937 -0.00835937 2.21171875 -1.04296875 2.8359375 C-17.1677553 12.66706044 -33.66724145 23.76280799 -44 40 C-44.33 39.34 -44.66 38.68 -45 38 C-33.54561088 22.4913082 -18.21637243 7.47540121 0 0 Z " fill="#101020" transform="translate(159,118)"/>
<path d="M0 0 C0 3 0 3 -2.125 5.453125 C-3.07493157 6.39397597 -4.03385825 7.32580271 -5 8.25 C-5.50329834 8.74089111 -6.00659668 9.23178223 -6.52514648 9.73754883 C-13.64386911 16.63186339 -21.22246304 22.86403334 -29 29 C-29.66 28.67 -30.32 28.34 -31 28 C-21.58470722 19.49150796 -21.58470722 19.49150796 -17.1875 15.6875 C-11.33534958 10.59552582 -5.6845171 5.27724225 0 0 Z " fill="#0D0D1C" transform="translate(319,385)"/>
<path d="M0 0 C2.71298399 2.39760146 4.08117062 4.85718232 5.62890625 8.11328125 C6.10650391 9.11423828 6.58410156 10.11519531 7.07617188 11.14648438 C7.8119043 12.71366211 7.8119043 12.71366211 8.5625 14.3125 C9.05685547 15.34568359 9.55121094 16.37886719 10.06054688 17.44335938 C12.33588622 22.2434325 14.38868583 26.93020994 16 32 C10.12027666 26.44379446 6.8787817 18.99656453 3.6875 11.6875 C3.32849609 10.89021484 2.96949219 10.09292969 2.59960938 9.27148438 C0 3.3839881 0 3.3839881 0 0 Z " fill="#141227" transform="translate(115,273)"/>
<path d="M0 0 C3.72355269 3.66909488 7.2943376 7.44674879 10.8125 11.3125 C11.56563477 12.13717773 11.56563477 12.13717773 12.33398438 12.97851562 C13.55703968 14.31805239 14.77867008 15.65888992 16 17 C13 17 13 17 10.6875 14.9375 C9.800625 13.968125 8.91375 12.99875 8 12 C7.47664062 11.43410156 6.95328125 10.86820312 6.4140625 10.28515625 C3.49739964 7.03414423 1.29082029 4.25970695 0 0 Z " fill="#0E0F1C" transform="translate(162,351)"/>
<path d="M0 0 C0 5.63151051 -4.9932091 9.92296788 -8.6875 13.875 C-11 16 -11 16 -14 18 C-12.68761832 15.15741394 -11.23292824 12.90591755 -9.1796875 10.546875 C-8.64472656 9.928125 -8.10976563 9.309375 -7.55859375 8.671875 C-7.00300781 8.03765625 -6.44742187 7.4034375 -5.875 6.75 C-5.31167969 6.1003125 -4.74835938 5.450625 -4.16796875 4.78125 C-2.78235636 3.184273 -1.39167246 1.59169878 0 0 Z " fill="#111024" transform="translate(349,351)"/>
<path d="M0 0 C0.66 0.33 1.32 0.66 2 1 C0.89591797 2.06927734 0.89591797 2.06927734 -0.23046875 3.16015625 C-5.33950788 8.15742696 -10.10830514 12.96116315 -14 19 C-14.33 18.34 -14.66 17.68 -15 17 C-4.815 3.21 -4.815 3.21 0 0 Z " fill="#0F0F1E" transform="translate(129,139)"/>
<path d="M0 0 C0 4.06772485 -1.54175504 5.09653495 -4.25 8.0625 C-5.03890625 8.94035156 -5.8278125 9.81820313 -6.640625 10.72265625 C-8.74033941 12.74936735 -10.32636212 13.91460114 -13 15 C-9.54122788 9.13512553 -4.88678132 4.69882819 0 0 Z " fill="#0F0D20" transform="translate(334,369)"/>
<path d="M0 0 C4.30041016 3.86913693 6.78146659 9.32296567 7.25 15.0625 C7.1675 15.701875 7.085 16.34125 7 17 C4.66911211 14.12145363 3.16775203 11.38015172 1.8125 7.9375 C1.46832031 7.08027344 1.12414062 6.22304688 0.76953125 5.33984375 C0 3 0 3 0 0 Z " fill="#0F101D" transform="translate(115,273)"/>
<path d="M0 0 C3.42946293 1.61674681 6.56263052 3.57597677 9.75 5.625 C11.22726563 6.57246094 11.22726563 6.57246094 12.734375 7.5390625 C13.48203125 8.02117187 14.2296875 8.50328125 15 9 C12 10 12 10 9.3359375 8.671875 C8.35882813 8.03765625 7.38171875 7.4034375 6.375 6.75 C5.39273438 6.12609375 4.41046875 5.5021875 3.3984375 4.859375 C1 3 1 3 0 0 Z " fill="#13122A" transform="translate(236,423)"/>
<path d="M0 0 C0.66 0 1.32 0 2 0 C4.25684543 5.36000789 5.36263859 9.1977825 5 15 C2.88955618 11.83433427 2.24447923 9.48802585 1.375 5.8125 C1.11460938 4.72582031 0.85421875 3.63914063 0.5859375 2.51953125 C0.39257812 1.68808594 0.19921875 0.85664063 0 0 Z " fill="#0F0F1D" transform="translate(105,246)"/>
<path d="M0 0 C1.27609323 0.90933009 2.54565553 1.82782853 3.8125 2.75 C4.87404297 3.51570313 4.87404297 3.51570313 5.95703125 4.296875 C8.02977691 6.02482358 9.47375854 7.78526476 11 10 C7.43235179 9.42380903 5.74840503 8.13030516 3.25 5.5625 C2.63640625 4.94503906 2.0228125 4.32757813 1.390625 3.69140625 C0 2 0 2 0 0 Z " fill="#0F1126" transform="translate(195,388)"/>
<path d="M0 0 C2.76276177 0.52268466 5.3260876 1.10869587 8 2 C9.33106622 2.34227417 10.66400079 2.67751743 12 3 C9.15916359 4.42041821 7.14522722 4.31452272 4 4 C1.625 2 1.625 2 0 0 Z " fill="#090E16" transform="translate(249,433)"/>
<path d="M0 0 C2.93200474 2.85276137 5.64315404 5.65079784 8 9 C4.11980141 7.74155722 2.0588158 6.57583797 0 3 C0 2.01 0 1.02 0 0 Z " fill="#191632" transform="translate(170,360)"/>
<path d="M0 0 C0.66 0.33 1.32 0.66 2 1 C-0.64 3.64 -3.28 6.28 -6 9 C-6 6 -6 6 -3.5625 3.375 C-2.716875 2.59125 -1.87125 1.8075 -1 1 C-0.67 0.67 -0.34 0.34 0 0 Z " fill="#1E1A38" transform="translate(129,139)"/>
</svg>
